<svg class="svg-icon" style="width: 1em; height: 1em;vertical-align: middle;fill: currentColor;overflow: hidden;" viewBox="0 0 1024 1024" version="1.1" xmlns="http://www.w3.org/2000/svg"><path d="M512.269015 1024a511.992548 511.992548 0 1 1 511.73106-511.73106 512.515523 512.515523 0 0 1-511.73106 511.73106z m0-971.426105a459.695045 459.695045 0 1 0 459.433557 459.695045A460.21802 460.21802 0 0 0 512.269015 52.573895z"  /><path d="M659.526718 509.210811m-17.289056 19.617485l0 0q-17.289056 19.617486-36.906541 2.32843l-221.089062-194.847658q-19.617486-17.289056-2.32843-36.906542l0 0q17.289056-19.617486 36.906542-2.328429l221.089061 194.847658q19.617486 17.289056 2.32843 36.906541Z"  /><path d="M625.322329 476.041569m17.289055 19.617486l0 0q17.289056 19.617486-2.328429 36.906541l-221.089062 194.847658q-19.617486 17.289056-36.906541-2.328429l0 0q-17.289056-19.617486 2.328429-36.906542l221.089062-194.847658q19.617486-17.289056 36.906541 2.32843Z"  /></svg>